<svg xmlns="http://www.w3.org/2000/svg" viewBox="0 0 512 512" width="512" height="512"><g transform="translate(256,256) scale(1.0) translate(-256,-256)"><path d="M100.00,260.00 Q100.00,250.00 107.07,242.93 L242.93,107.07 Q250.00,100.00 260.00,100.00 L362.00,100.00 Q372.00,100.00 379.07,107.07 L404.93,132.93 Q412.00,140.00 412.00,150.00 L412.00,198.00 Q412.00,208.00 402.00,208.00 L252.00,208.00 Q224.00,208.00 224.00,236.00 L224.00,274.28 Q224.00,288.00 237.72,288.00 L243.18,288.00 Q252.00,288.00 252.00,279.18 L252.00,278.82 Q252.00,270.00 260.82,270.00 L408.08,270.00 Q412.00,270.00 412.00,266.08 L412.00,265.92 Q412.00,262.00 409.23,264.77 L269.07,404.93 Q262.00,412.00 252.00,412.00 L150.00,412.00 Q140.00,412.00 132.93,404.93 L107.07,379.07 Q100.00,372.00 100.00,362.00 L100.00,260.00 Z" fill="#d5e43f"/></g></svg>